<svg xmlns="http://www.w3.org/2000/svg" width="256" height="256" viewBox="0 0 256 256">
  <rect x="16" y="16" width="224" height="224" rx="56" fill="#F8FAFD" stroke="#DCE5F0" stroke-width="4"/>
  <path d="M48 85c0-9 7-16 16-16h43l19 21h66c9 0 16 7 16 16v76c0 9-7 16-16 16H64c-9 0-16-7-16-16V85z" fill="#005CFE"/>
  <path d="M48 105c0-8 7-15 15-15h129c9 0 16 7 16 16v9H48v-10z" fill="#2F7BFE"/>
  <path d="M74 151h108" fill="none" stroke="#FFFFFF" stroke-width="12" stroke-linecap="round" opacity=".92"/>
</svg>
